<svg xmlns="http://www.w3.org/2000/svg" xmlns:xlink="http://www.w3.org/1999/xlink" width="500" zoomAndPan="magnify" viewBox="0 0 375 374.999991" height="500" preserveAspectRatio="xMidYMid meet" version="1.0"><defs><clipPath id="cc1f210ec2"><path d="M 6 220 L 172.476562 220 L 172.476562 237.867188 L 6 237.867188 Z M 6 220 " clip-rule="nonzero"/></clipPath><clipPath id="e92c597831"><path d="M 106 42.125 L 372 42.125 L 372 266.960938 L 106 266.960938 Z M 106 42.125 " clip-rule="nonzero"/></clipPath><clipPath id="9ad80b73e7"><rect x="0" width="372" y="0" height="267"/></clipPath></defs><g transform="matrix(1, 0, 0, 1, 0, 58)"><g clip-path="url(#9ad80b73e7)"><path fill="#5e8fa8" d="M 98.796875 15.054688 L 98.464844 15.335938 C 97.699219 16.214844 96.941406 17.324219 96.195312 18.660156 L 91.746094 27.277344 C 91.464844 27.84375 91.199219 28.433594 90.945312 29.050781 C 89.550781 31.003906 88.578125 32.570312 88.027344 33.75 L 87.492188 34.816406 L 85.527344 39.089844 L 85.203125 40.195312 L 85.363281 40.496094 L 85.917969 40.035156 L 86.765625 38.871094 L 87.816406 37.054688 C 88.964844 34.8125 89.980469 32.65625 90.863281 30.578125 C 91.113281 30.46875 91.757812 29.542969 92.800781 27.808594 L 97.527344 19.097656 C 98.132812 17.914062 98.566406 16.894531 98.832031 16.039062 C 98.984375 15.53125 99.03125 15.210938 98.972656 15.074219 L 98.796875 15.054688 " fill-opacity="1" fill-rule="nonzero"/><path fill="#5e8fa8" d="M 83.769531 43.160156 L 83.402344 43.242188 C 82.148438 44.691406 77.285156 53.445312 68.8125 69.503906 C 64.484375 77.441406 48.25 108.929688 20.101562 163.976562 C 9.78125 185.007812 3.085938 199.136719 0.0117188 206.367188 L 0.316406 210.628906 L 39.023438 131.273438 C 42.550781 124.171875 55.085938 99.859375 76.640625 58.335938 L 83.195312 45.148438 C 83.757812 43.6875 83.953125 43.027344 83.769531 43.160156 Z M 83.769531 43.160156 " fill-opacity="1" fill-rule="nonzero"/><path fill="#5e8fa8" d="M 126.160156 1.09375 L 125.066406 1.101562 C 121.472656 1.277344 117.925781 2.117188 114.433594 3.617188 C 110.375 5.355469 107.082031 7.398438 104.558594 9.746094 L 105.308594 10.332031 C 108.84375 8.402344 111.648438 6.976562 113.71875 6.054688 C 114.769531 5.578125 116.039062 5.070312 117.523438 4.539062 C 119.1875 4 120.167969 3.710938 120.464844 3.671875 C 122.34375 3.257812 123.992188 3.050781 125.410156 3.050781 C 126.828125 3.050781 128.015625 3.257812 128.96875 3.671875 C 129.535156 3.945312 130.046875 4.261719 130.496094 4.617188 L 131.164062 5.214844 C 131.582031 5.636719 131.9375 6.09375 132.234375 6.59375 C 133.066406 8.121094 133.554688 9.878906 133.691406 11.863281 C 133.730469 12.84375 133.546875 13.996094 133.136719 15.316406 C 133.03125 15.839844 132.378906 17.667969 131.171875 20.804688 L 130.976562 21.605469 L 130.96875 21.632812 C 130.585938 22.316406 130.1875 23.046875 129.769531 23.820312 C 127.878906 24.289062 126.449219 24.617188 125.488281 24.796875 C 123.839844 25.097656 122.863281 25.257812 122.566406 25.273438 C 121.203125 25.449219 119.855469 25.558594 118.519531 25.609375 C 118.101562 25.621094 117.683594 25.628906 117.265625 25.628906 C 117.027344 25.628906 116.789062 25.628906 116.550781 25.621094 L 115.53125 25.585938 C 113.527344 25.488281 111.570312 25.160156 109.660156 24.597656 C 107.164062 23.847656 104.835938 22.871094 102.675781 21.671875 L 101.574219 22.046875 C 102.269531 23.152344 103.691406 24.226562 105.835938 25.269531 C 107.699219 26.128906 109.722656 26.738281 111.898438 27.109375 C 113.964844 27.433594 116.042969 27.667969 118.136719 27.804688 C 118.890625 27.855469 119.660156 27.878906 120.441406 27.878906 C 121.089844 27.878906 121.742188 27.863281 122.410156 27.828125 C 123.792969 27.765625 125.207031 27.582031 126.644531 27.28125 L 127.730469 27.027344 C 127.851562 26.996094 127.972656 26.960938 128.089844 26.929688 L 128.09375 26.929688 C 127.835938 27.425781 127.570312 27.9375 127.292969 28.460938 C 123.867188 34.664062 110.167969 60.3125 86.199219 105.40625 L 85.964844 104.90625 C 85.042969 105.113281 84.300781 105.308594 83.742188 105.492188 L 82.816406 105.714844 C 81.253906 106.003906 80.277344 106.160156 79.878906 106.175781 C 79.375 106.234375 78.882812 106.265625 78.394531 106.265625 C 78.292969 106.265625 78.191406 106.261719 78.089844 106.261719 L 77.066406 106.214844 C 76.292969 106.15625 75.640625 106.082031 75.109375 106 C 72.734375 105.621094 71.058594 105.238281 70.082031 104.84375 C 69.746094 104.757812 68.835938 104.375 67.355469 103.707031 L 63.105469 101.5625 L 62.058594 101.160156 L 61.976562 102.40625 L 62.738281 103.089844 C 63.265625 103.527344 63.820312 103.929688 64.398438 104.300781 C 64.660156 104.523438 65.574219 105.011719 67.144531 105.769531 C 68.421875 106.332031 69.78125 106.8125 71.214844 107.210938 C 73.75 107.914062 75.464844 108.351562 76.367188 108.527344 C 77.195312 108.671875 77.964844 108.765625 78.671875 108.808594 L 79.699219 108.820312 C 80.484375 108.785156 81.246094 108.703125 81.988281 108.578125 C 82.722656 108.449219 83.417969 108.269531 84.074219 108.042969 L 84.988281 107.675781 L 84.992188 107.675781 C 74.933594 127.980469 65.675781 147.226562 57.21875 165.414062 C 52.054688 176.628906 48.101562 185.457031 45.355469 191.898438 C 44.800781 193.019531 44.636719 193.824219 44.867188 194.3125 C 45.859375 193.210938 46.566406 192.136719 46.984375 191.089844 C 72.234375 138.035156 85.519531 110.5 86.828125 108.484375 C 104.105469 77.21875 117.308594 52.871094 126.441406 35.441406 L 126.4375 35.441406 L 126.046875 35.503906 L 126.4375 35.4375 L 127.269531 35.296875 C 128 35.089844 128.675781 34.917969 129.300781 34.78125 L 130.394531 34.578125 L 131.410156 34.4375 L 133.4375 34.234375 L 134.066406 34.578125 L 134.941406 34.96875 L 135.984375 35.625 L 136.683594 36.40625 L 137.1875 37.265625 L 137.667969 38.386719 L 138.246094 38.726562 L 138.398438 37.402344 L 137.5625 35.4375 L 136.328125 34.3125 L 135.214844 33.871094 L 134.203125 33.75 L 133.628906 33.457031 L 132.457031 33.214844 L 131.132812 33.21875 C 129.746094 33.367188 128.453125 33.582031 127.261719 33.867188 C 128.789062 30.953125 130.191406 28.238281 131.476562 25.730469 C 131.539062 25.699219 131.605469 25.671875 131.671875 25.640625 L 132.628906 24.585938 L 131.746094 23.394531 L 132.292969 24.128906 C 132.757812 23.21875 133.203125 22.335938 133.632812 21.480469 C 136.109375 16.566406 137.015625 13.835938 136.351562 13.28125 L 136.347656 13.28125 L 136.308594 13.308594 C 136.367188 12.925781 136.382812 12.644531 136.359375 12.464844 C 136.394531 11.925781 136.238281 10.824219 135.890625 9.160156 C 135.433594 6.886719 134.304688 4.941406 132.5 3.324219 L 131.558594 2.628906 C 130.929688 2.21875 130.246094 1.875 129.511719 1.59375 L 128.269531 1.261719 C 127.582031 1.164062 126.878906 1.109375 126.160156 1.09375 Z M 86.203125 105.410156 L 86.703125 106.496094 L 86.195312 107.054688 L 85.171875 107.601562 L 85 107.671875 C 85.019531 107.632812 85.039062 107.59375 85.058594 107.558594 C 85.441406 106.835938 85.820312 106.121094 86.199219 105.410156 Z M 86.203125 105.410156 " fill-opacity="1" fill-rule="nonzero"/><path fill="#5e8fa8" d="M 145.679688 35.730469 L 144.917969 36.917969 L 139.933594 46.484375 C 136.890625 52.570312 134.121094 58.101562 131.625 63.074219 C 132.046875 62.1875 132.480469 61.265625 132.929688 60.3125 C 135.464844 55.09375 136.933594 51.542969 137.332031 49.664062 C 138.429688 45.683594 138.765625 42.707031 138.339844 40.738281 L 138.335938 40.738281 L 137.839844 40.765625 C 137.066406 45.332031 135.851562 49.476562 134.203125 53.195312 L 126.175781 69.878906 L 108.382812 102.480469 C 105.757812 107.335938 103.21875 112.246094 100.765625 117.214844 C 97.804688 123.320312 96.035156 127.195312 95.457031 128.847656 L 95.023438 130.601562 L 95.027344 130.683594 C 93.558594 133.339844 92.160156 135.898438 90.828125 138.355469 C 89.382812 141.078125 88.871094 142.730469 89.300781 143.304688 C 90.261719 143.078125 91.144531 142.238281 91.953125 140.78125 C 97.050781 132.566406 105.445312 117.746094 117.132812 96.3125 C 132.320312 66.105469 140 50.660156 140.167969 49.96875 C 142.332031 45.375 144.179688 41.289062 145.710938 37.707031 L 146.046875 35.953125 Z M 126.121094 74.007812 C 120.367188 85.414062 116.75 92.460938 115.269531 95.144531 C 114.464844 96.523438 113.675781 97.882812 112.894531 99.230469 C 118.714844 87.914062 123.125 79.507812 126.117188 74.007812 Z M 126.121094 74.007812 " fill-opacity="1" fill-rule="nonzero"/><path fill="#5e8fa8" d="M 83.808594 43.144531 L 83.792969 43.144531 C 83.566406 41.066406 65.601562 74.871094 29.902344 144.558594 C 18.703125 166.457031 8.738281 187.054688 0.00390625 206.355469 L 1.003906 219.117188 C 1.171875 220.847656 1.378906 222.558594 1.625 224.253906 C 2.457031 228.460938 3.679688 231.792969 5.300781 234.242188 C 11.070312 226.070312 16.460938 219.867188 21.480469 215.632812 C 24.4375 213.132812 30.542969 209.582031 39.789062 204.972656 L 42.925781 198.460938 C 43.1875 197.714844 43.105469 197.382812 42.683594 197.464844 C 41.269531 199.335938 40.335938 200.84375 39.875 201.988281 C 32.328125 205.550781 25.832031 209.578125 20.386719 214.066406 C 9.59375 224.746094 4.449219 230.617188 4.949219 231.679688 C 4.039062 227.945312 3.246094 222.742188 2.570312 216.0625 C 2.3125 210.90625 2.332031 207.582031 2.625 206.085938 L 39.023438 131.273438 L 76.640625 58.335938 L 83.195312 45.148438 Z M 83.808594 43.144531 " fill-opacity="1" fill-rule="nonzero"/><path fill="#5e8fa8" d="M 15.105469 207.351562 L 13.203125 207.359375 L 12.054688 207.789062 L 11.007812 208.535156 L 11.65625 210.144531 L 10.933594 210.515625 L 11.925781 211.105469 L 12.632812 210.800781 L 13.316406 210.253906 L 13.132812 210.050781 L 13.566406 209.941406 L 14.390625 209.917969 L 14.695312 210.058594 L 14.769531 210.257812 L 14.691406 210.796875 L 14.300781 211.640625 L 13.769531 212.359375 L 13.160156 212.960938 L 12.4375 213.464844 L 11.664062 213.839844 L 11.019531 213.964844 L 10.628906 213.894531 L 10.574219 213.820312 L 10.523438 213.550781 L 10.535156 213.175781 L 10.964844 211.496094 L 9.613281 211.542969 L 9 212.359375 L 8.644531 213.445312 L 8.871094 214.753906 L 9.808594 215.664062 L 11.0625 215.898438 L 12.234375 215.671875 L 13.296875 215.207031 L 14.300781 214.621094 L 15.230469 213.933594 L 16.082031 213.089844 L 16.894531 211.863281 L 17.324219 210.238281 L 16.816406 208.5 Z M 15.105469 207.351562 " fill-opacity="1" fill-rule="nonzero"/><path fill="#5e8fa8" d="M 21.988281 187.007812 C 21.921875 187.007812 21.859375 187.007812 21.792969 187.007812 L 20.625 187.066406 C 19.058594 187.164062 17.617188 187.460938 16.304688 187.960938 L 16.003906 189.140625 L 17.199219 189.121094 C 17.507812 189.078125 18.558594 189.03125 20.347656 188.972656 C 20.984375 188.964844 21.53125 188.960938 21.988281 188.960938 C 22.859375 188.960938 23.398438 188.976562 23.605469 189.003906 C 25.28125 189.136719 26.257812 189.246094 26.53125 189.335938 C 27.132812 189.445312 27.726562 189.589844 28.3125 189.769531 C 29.527344 190.144531 30.71875 190.636719 31.890625 191.253906 C 32.183594 191.378906 33.074219 191.882812 34.5625 192.769531 C 38.011719 195.023438 39.925781 196.261719 40.3125 196.480469 L 41.324219 196.691406 L 42.167969 195.277344 L 41.199219 194.269531 C 40.933594 193.996094 40.101562 193.335938 38.695312 192.292969 C 37.59375 191.515625 36.40625 190.804688 35.140625 190.167969 C 34.808594 189.960938 33.796875 189.523438 32.113281 188.859375 C 30.75 188.367188 29.414062 187.984375 28.105469 187.703125 C 26.269531 187.238281 24.230469 187.007812 21.988281 187.007812 Z M 21.988281 187.007812 " fill-opacity="1" fill-rule="nonzero"/><path fill="#5e8fa8" d="M 14.921875 188.316406 L 13.65625 188.671875 L 12.679688 188.664062 L 11.632812 189.003906 L 10.960938 189.957031 L 12.023438 190.328125 L 12.972656 189.871094 L 13.851562 189.710938 L 14.851562 189.320312 Z M 14.921875 188.316406 " fill-opacity="1" fill-rule="nonzero"/><path fill="#5e8fa8" d="M 58.996094 98.023438 L 58.558594 99.027344 L 59.375 99.773438 L 59.96875 100.457031 L 60.808594 101.128906 L 61.039062 101.199219 L 61.1875 99.96875 L 60.585938 99.4375 L 59.96875 98.566406 Z M 58.996094 98.023438 " fill-opacity="1" fill-rule="nonzero"/><path fill="#5e8fa8" d="M 84.777344 99.050781 L 84.257812 99.695312 L 84.972656 100.644531 L 85.503906 99.886719 L 85.878906 99.097656 Z M 84.777344 99.050781 " fill-opacity="1" fill-rule="nonzero"/><path fill="#5e8fa8" d="M 92.183594 84.695312 L 91.550781 85.640625 C 91.148438 86.273438 90.777344 86.898438 90.433594 87.527344 C 90.398438 87.566406 89.765625 88.765625 88.53125 91.125 L 88.066406 91.949219 C 87.203125 93.316406 86.660156 94.230469 86.429688 94.6875 L 85.933594 95.703125 L 85.558594 96.710938 L 85.339844 97.730469 L 86.496094 98.335938 L 87.066406 97.488281 C 87.101562 97.488281 87.835938 96.207031 89.269531 93.644531 L 89.773438 92.867188 C 89.925781 92.617188 90.523438 91.835938 91.5625 90.519531 C 91.980469 89.976562 92.378906 89.398438 92.757812 88.792969 C 93.136719 88.1875 93.46875 87.539062 93.753906 86.851562 L 94.125 85.789062 Z M 92.183594 84.695312 " fill-opacity="1" fill-rule="nonzero"/><path fill="#5e8fa8" d="M 104.683594 59.289062 L 103.507812 59.75 L 103.117188 60.453125 L 102.511719 61.488281 L 102.472656 62.886719 L 103.578125 62.484375 L 103.890625 61.5 L 104.371094 60.644531 L 104.734375 59.71875 Z M 104.683594 59.289062 " fill-opacity="1" fill-rule="nonzero"/><path fill="#5e8fa8" d="M 118.171875 35.15625 L 116.734375 35.910156 C 115.953125 37.09375 115.230469 38.257812 114.5625 39.398438 L 109.976562 47.507812 L 107.289062 51.945312 C 106.917969 52.570312 106.582031 53.171875 106.273438 53.75 C 105.605469 54.992188 105.070312 56.25 104.664062 57.527344 L 104.921875 58.765625 L 105.925781 57.992188 C 106.277344 57.464844 106.640625 56.886719 107.019531 56.253906 C 107.539062 55.414062 108.421875 53.910156 109.671875 51.746094 C 110.507812 50.347656 111.027344 49.496094 111.234375 49.191406 C 111.605469 48.605469 112 48.007812 112.417969 47.398438 C 113.757812 45.523438 114.726562 44.125 115.328125 43.199219 C 116.300781 41.675781 116.851562 40.792969 116.976562 40.542969 C 117.648438 39.390625 118.25 38.160156 118.789062 36.851562 Z M 118.171875 35.15625 " fill-opacity="1" fill-rule="nonzero"/><path fill="#5e8fa8" d="M 98.796875 15.054688 L 98.464844 15.335938 C 97.867188 15.960938 97.109375 17.070312 96.195312 18.660156 L 91.746094 27.277344 C 91.402344 27.976562 91.136719 28.566406 90.945312 29.050781 L 90.636719 29.585938 C 90.546875 29.585938 90.058594 30.289062 89.171875 31.691406 C 88.792969 32.328125 88.410156 33.011719 88.027344 33.75 L 87.492188 34.816406 L 85.527344 39.089844 L 85.203125 40.195312 L 85.363281 40.496094 L 85.917969 40.035156 L 86.765625 38.871094 L 87.816406 37.054688 C 89.195312 34.328125 90.210938 32.167969 90.863281 30.578125 C 91.253906 30.269531 91.898438 29.347656 92.800781 27.808594 L 97.527344 19.097656 L 98.09375 17.925781 C 98.433594 17.175781 98.679688 16.546875 98.832031 16.039062 L 98.984375 15.417969 L 98.972656 15.074219 Z M 98.796875 15.054688 " fill-opacity="1" fill-rule="nonzero"/><path fill="#5e8fa8" d="M 136.121094 25.488281 L 134.839844 25.492188 L 133.632812 25.636719 L 132.773438 25.871094 L 132.4375 26.140625 L 132.726562 26.394531 L 133.523438 26.625 L 134.640625 26.796875 L 135.910156 26.871094 C 136.5 26.863281 137.019531 26.859375 137.460938 26.859375 C 138.214844 26.859375 138.746094 26.871094 139.054688 26.886719 C 139.398438 26.890625 140.457031 26.941406 142.230469 27.039062 L 143.128906 27.054688 L 143.628906 27.394531 L 144.53125 27.890625 L 145.144531 28.679688 L 145.722656 29.703125 L 146.054688 30.734375 C 146.160156 31.367188 146.234375 32.160156 146.269531 33.105469 L 146.613281 33.640625 L 147.140625 32.851562 L 147.308594 30.675781 L 146.90625 29.164062 L 145.726562 27.539062 L 145.519531 27.3125 L 142.8125 26.085938 L 141.464844 25.808594 C 140.308594 25.660156 138.527344 25.550781 136.121094 25.488281 Z M 136.121094 25.488281 " fill-opacity="1" fill-rule="nonzero"/><path fill="#5e8fa8" d="M 99.179688 17.402344 L 98.414062 17.925781 L 98.859375 18.960938 L 99.542969 19.757812 L 99.882812 20.535156 L 100.714844 21.222656 L 101.554688 20.433594 L 100.660156 19.777344 L 100.4375 18.992188 L 99.914062 18.167969 Z M 99.179688 17.402344 " fill-opacity="1" fill-rule="nonzero"/><path fill="#5e8fa8" d="M 103.113281 10.3125 L 101.9375 11.125 L 101.28125 11.902344 L 100.464844 12.046875 L 99.433594 12.710938 L 98.546875 13.355469 L 97.59375 14.21875 L 97.457031 15.070312 L 98.328125 15.097656 L 99.394531 14.40625 C 99.941406 13.953125 100.503906 13.480469 101.070312 12.980469 C 101.425781 12.78125 101.984375 12.492188 102.75 12.105469 L 103.480469 11.375 L 103.816406 10.992188 Z M 103.113281 10.3125 " fill-opacity="1" fill-rule="nonzero"/><path fill="#5e8fa8" d="M 41.6875 201.160156 L 41.28125 201.34375 C 33.691406 204.660156 26.726562 208.902344 20.386719 214.066406 C 15.367188 218.625 11.425781 222.757812 8.558594 226.46875 C 6.957031 228.601562 5.535156 230.691406 4.285156 232.742188 L 5.300781 234.242188 C 9.148438 228.355469 14.105469 222.566406 20.171875 216.875 C 24.535156 213.046875 31.074219 209.082031 39.789062 204.972656 C 40.355469 203.953125 40.988281 202.683594 41.6875 201.160156 Z M 41.6875 201.160156 " fill-opacity="1" fill-rule="nonzero"/><path fill="#5e8fa8" d="M 43.089844 197.257812 L 42.683594 197.464844 L 41.976562 198.324219 L 41.070312 199.746094 C 40.679688 200.453125 40.28125 201.199219 39.875 201.988281 C 39.875 201.988281 39.875 201.988281 39.871094 201.988281 C 39.257812 203.1875 38.625 204.476562 37.980469 205.855469 L 39.789062 204.972656 C 40.210938 204.242188 40.84375 202.972656 41.691406 201.160156 L 41.6875 201.160156 C 41.980469 200.542969 42.292969 199.859375 42.632812 199.113281 L 43.082031 197.832031 Z M 43.089844 197.257812 " fill-opacity="1" fill-rule="nonzero"/><path fill="#5e8fa8" d="M 136.34375 13.28125 L 136.304688 13.3125 C 136.304688 13.3125 136.304688 13.316406 136.304688 13.316406 L 136.300781 13.316406 L 135.875 13.65625 C 135.394531 13.875 133.761719 16.523438 130.972656 21.605469 L 130.96875 21.632812 L 130.964844 21.632812 C 130.585938 22.316406 130.1875 23.046875 129.769531 23.820312 C 129.765625 23.820312 129.765625 23.820312 129.765625 23.824219 C 129.246094 24.789062 128.691406 25.824219 128.105469 26.925781 C 128.105469 26.925781 128.101562 26.925781 128.101562 26.925781 C 127.839844 27.425781 127.570312 27.9375 127.292969 28.460938 C 123.867188 34.664062 110.167969 60.3125 86.199219 105.410156 C 85.820312 106.121094 85.441406 106.835938 85.058594 107.558594 C 85.039062 107.59375 85.019531 107.632812 85 107.671875 L 85.171875 107.601562 L 84.996094 107.671875 C 74.933594 127.980469 65.675781 147.226562 57.21875 165.414062 C 52.054688 176.628906 48.101562 185.457031 45.355469 191.898438 C 44.800781 193.019531 44.636719 193.824219 44.867188 194.3125 C 45.859375 193.210938 46.566406 192.136719 46.984375 191.089844 C 72.234375 138.035156 85.519531 110.5 86.828125 108.484375 C 104.105469 77.21875 117.3125 52.871094 126.445312 35.4375 L 126.441406 35.441406 L 126.046875 35.503906 L 126.441406 35.4375 L 126.445312 35.4375 L 126.441406 35.4375 C 126.71875 34.910156 126.996094 34.386719 127.265625 33.867188 L 127.261719 33.867188 C 128.789062 30.953125 130.191406 28.238281 131.476562 25.730469 L 131.472656 25.730469 C 131.75 25.1875 132.023438 24.65625 132.289062 24.132812 L 131.746094 23.394531 L 132.292969 24.128906 C 132.757812 23.21875 133.203125 22.335938 133.632812 21.480469 C 136.109375 16.5625 137.015625 13.828125 136.347656 13.28125 Z M 136.34375 13.28125 " fill-opacity="1" fill-rule="nonzero"/><path fill="#5e8fa8" d="M 103.113281 10.3125 L 101.9375 11.125 L 101.28125 11.902344 L 100.464844 12.046875 L 99.433594 12.710938 L 98.546875 13.355469 L 97.59375 14.21875 L 97.457031 15.070312 L 98.328125 15.097656 L 99.394531 14.40625 C 99.941406 13.953125 100.503906 13.480469 101.070312 12.980469 C 101.425781 12.78125 101.984375 12.492188 102.75 12.105469 L 103.480469 11.375 L 103.816406 10.992188 L 103.113281 10.3125 M 126.160156 1.09375 L 125.066406 1.101562 C 121.472656 1.277344 117.925781 2.117188 114.433594 3.617188 C 110.375 5.355469 107.082031 7.398438 104.558594 9.746094 L 105.308594 10.332031 C 108.84375 8.402344 111.648438 6.976562 113.71875 6.054688 C 114.769531 5.578125 116.039062 5.070312 117.523438 4.539062 C 119.1875 4 120.167969 3.710938 120.464844 3.671875 C 124.226562 2.84375 127.0625 2.84375 128.96875 3.671875 C 129.535156 3.945312 130.046875 4.261719 130.496094 4.617188 L 131.164062 5.214844 C 131.582031 5.636719 131.9375 6.09375 132.234375 6.59375 C 133.066406 8.121094 133.554688 9.878906 133.691406 11.863281 C 133.730469 12.84375 133.546875 13.996094 133.136719 15.316406 C 133.03125 15.839844 132.378906 17.667969 131.171875 20.804688 L 130.90625 21.890625 L 131.285156 23.238281 L 132.457031 22.886719 L 133.308594 21.542969 C 134.296875 19.699219 135.113281 17.78125 135.757812 15.785156 C 136.21875 14.035156 136.421875 12.925781 136.359375 12.464844 C 136.394531 11.925781 136.238281 10.824219 135.890625 9.160156 C 135.433594 6.886719 134.304688 4.941406 132.5 3.324219 L 131.558594 2.628906 C 130.929688 2.21875 130.246094 1.875 129.511719 1.59375 L 128.269531 1.261719 C 127.582031 1.164062 126.878906 1.109375 126.160156 1.09375 " fill-opacity="1" fill-rule="nonzero"/><path fill="#5e8fa8" d="M 99.179688 17.402344 L 98.414062 17.925781 L 98.859375 18.960938 L 99.542969 19.757812 L 99.882812 20.535156 L 100.714844 21.222656 L 101.554688 20.433594 L 100.660156 19.777344 L 100.4375 18.992188 L 99.914062 18.167969 L 99.179688 17.402344 M 102.675781 21.671875 L 101.574219 22.046875 C 102.269531 23.152344 103.691406 24.226562 105.835938 25.269531 C 107.699219 26.128906 109.722656 26.738281 111.898438 27.109375 C 113.964844 27.433594 116.042969 27.667969 118.136719 27.804688 C 119.515625 27.894531 120.941406 27.902344 122.410156 27.828125 C 123.792969 27.765625 125.207031 27.582031 126.644531 27.28125 L 127.730469 27.027344 C 128.414062 26.851562 129.078125 26.648438 129.71875 26.421875 C 130.375 26.195312 131.023438 25.933594 131.671875 25.640625 L 132.628906 24.585938 L 131.746094 23.394531 L 130.40625 23.660156 C 128.195312 24.21875 126.554688 24.597656 125.488281 24.796875 C 123.839844 25.097656 122.863281 25.257812 122.566406 25.273438 C 121.203125 25.449219 119.855469 25.558594 118.519531 25.609375 C 117.863281 25.628906 117.203125 25.636719 116.550781 25.621094 L 115.53125 25.585938 C 113.527344 25.488281 111.570312 25.160156 109.660156 24.597656 C 107.164062 23.847656 104.835938 22.871094 102.675781 21.671875 " fill-opacity="1" fill-rule="nonzero"/><path fill="#5e8fa8" d="M 86.195312 107.054688 L 85.171875 107.601562 L 84.074219 108.042969 C 83.417969 108.269531 82.722656 108.449219 81.988281 108.578125 C 81.246094 108.703125 80.484375 108.785156 79.699219 108.820312 L 78.671875 108.808594 C 77.964844 108.765625 77.195312 108.671875 76.367188 108.527344 C 75.464844 108.351562 73.75 107.914062 71.214844 107.210938 C 69.78125 106.8125 68.421875 106.332031 67.144531 105.769531 C 65.574219 105.011719 64.660156 104.523438 64.398438 104.300781 C 63.820312 103.929688 63.265625 103.527344 62.738281 103.089844 L 61.976562 102.40625 L 62.058594 101.160156 L 63.105469 101.5625 L 67.355469 103.707031 C 68.835938 104.375 69.746094 104.757812 70.082031 104.84375 C 71.058594 105.238281 72.734375 105.621094 75.109375 106 C 75.640625 106.082031 76.292969 106.15625 77.066406 106.214844 L 78.089844 106.261719 C 78.675781 106.273438 79.269531 106.246094 79.878906 106.175781 C 80.277344 106.160156 81.253906 106.003906 82.816406 105.714844 L 83.742188 105.492188 C 84.300781 105.308594 85.042969 105.113281 85.964844 104.90625 L 86.703125 106.496094 L 86.195312 107.054688 M 60.808594 101.128906 L 59.96875 100.457031 L 59.375 99.773438 L 58.558594 99.027344 L 58.996094 98.023438 L 59.96875 98.566406 L 60.585938 99.4375 L 61.1875 99.96875 L 61.039062 101.199219 L 60.808594 101.128906 " fill-opacity="1" fill-rule="nonzero"/><path fill="#5e8fa8" d="M 136.121094 25.488281 L 134.839844 25.492188 L 133.632812 25.636719 L 132.773438 25.871094 L 132.4375 26.140625 L 132.726562 26.394531 L 133.523438 26.625 L 134.640625 26.796875 L 135.910156 26.871094 C 137.519531 26.851562 138.566406 26.859375 139.054688 26.886719 C 139.398438 26.890625 140.457031 26.941406 142.230469 27.039062 L 143.128906 27.054688 L 143.628906 27.394531 L 144.53125 27.890625 L 145.144531 28.679688 L 145.722656 29.703125 L 146.054688 30.734375 C 146.160156 31.367188 146.234375 32.160156 146.269531 33.105469 L 146.613281 33.640625 L 147.140625 32.851562 L 147.308594 30.675781 L 146.90625 29.164062 L 145.726562 27.539062 L 145.519531 27.3125 L 142.8125 26.085938 L 141.464844 25.808594 C 140.308594 25.660156 138.527344 25.550781 136.121094 25.488281 M 145.679688 35.730469 L 144.917969 36.917969 L 139.933594 46.484375 C 125.925781 74.503906 117.703125 90.726562 115.269531 95.144531 C 105.476562 111.9375 97.332031 126.339844 90.828125 138.355469 C 89.382812 141.078125 88.871094 142.730469 89.300781 143.304688 C 90.261719 143.078125 91.144531 142.238281 91.953125 140.78125 C 97.050781 132.566406 105.445312 117.746094 117.132812 96.3125 C 132.320312 66.105469 140 50.660156 140.167969 49.96875 C 142.332031 45.375 144.179688 41.289062 145.710938 37.707031 L 146.046875 35.953125 L 145.679688 35.730469 " fill-opacity="1" fill-rule="nonzero"/><path fill="#5e8fa8" d="M 132.457031 33.214844 L 131.132812 33.21875 C 129.546875 33.386719 128.089844 33.644531 126.761719 33.992188 L 125.535156 34.464844 L 124.734375 34.992188 L 124.550781 35.382812 L 125.054688 35.539062 L 126.046875 35.503906 L 127.269531 35.296875 C 128 35.089844 128.675781 34.917969 129.300781 34.78125 L 130.394531 34.578125 L 131.410156 34.4375 L 133.4375 34.234375 L 134.066406 34.578125 L 134.941406 34.96875 L 135.984375 35.625 L 136.683594 36.40625 L 137.1875 37.265625 L 137.667969 38.386719 L 138.246094 38.726562 L 138.398438 37.402344 L 137.5625 35.4375 L 136.328125 34.3125 L 135.214844 33.871094 L 134.203125 33.75 L 133.628906 33.457031 L 132.457031 33.214844 M 138.339844 40.738281 L 137.839844 40.765625 C 137.066406 45.332031 135.851562 49.476562 134.203125 53.195312 L 126.175781 69.878906 L 108.382812 102.480469 C 105.757812 107.335938 103.21875 112.246094 100.765625 117.214844 C 97.804688 123.320312 96.035156 127.195312 95.457031 128.847656 L 95.023438 130.601562 L 95.074219 131.65625 L 95.511719 131.941406 C 95.917969 131.90625 96.539062 131.140625 97.378906 129.644531 C 113.113281 98.59375 123.304688 78.941406 127.953125 70.6875 C 129.363281 67.824219 131.019531 64.363281 132.929688 60.3125 C 135.464844 55.09375 136.933594 51.542969 137.332031 49.664062 C 138.429688 45.683594 138.765625 42.707031 138.339844 40.738281 " fill-opacity="1" fill-rule="nonzero"/><path fill="#5e8fa8" d="M 15.105469 207.351562 L 13.203125 207.359375 L 12.054688 207.789062 L 11.007812 208.535156 L 11.65625 210.144531 L 10.933594 210.515625 L 11.925781 211.105469 L 12.632812 210.800781 L 13.316406 210.253906 L 13.132812 210.050781 L 13.566406 209.941406 L 14.390625 209.917969 L 14.695312 210.058594 L 14.769531 210.257812 L 14.691406 210.796875 L 14.300781 211.640625 L 13.769531 212.359375 L 13.160156 212.960938 L 12.4375 213.464844 L 11.664062 213.839844 L 11.019531 213.964844 L 10.628906 213.894531 L 10.574219 213.820312 L 10.523438 213.550781 L 10.535156 213.175781 L 10.964844 211.496094 L 9.613281 211.542969 L 9 212.359375 L 8.644531 213.445312 L 8.871094 214.753906 L 9.808594 215.664062 L 11.0625 215.898438 L 12.234375 215.671875 L 13.296875 215.207031 L 14.300781 214.621094 L 15.230469 213.933594 L 16.082031 213.089844 L 16.894531 211.863281 L 17.324219 210.238281 L 16.816406 208.5 L 15.105469 207.351562 " fill-opacity="1" fill-rule="nonzero"/><path fill="#5e8fa8" d="M 14.921875 188.316406 L 13.65625 188.671875 L 12.679688 188.664062 L 11.632812 189.003906 L 10.960938 189.957031 L 12.023438 190.328125 L 12.972656 189.871094 L 13.851562 189.710938 L 14.851562 189.320312 L 14.921875 188.316406 M 21.792969 187.007812 L 20.625 187.066406 C 19.058594 187.164062 17.617188 187.460938 16.304688 187.960938 L 16.003906 189.140625 L 17.199219 189.121094 C 17.507812 189.078125 18.558594 189.03125 20.347656 188.972656 C 22.203125 188.953125 23.289062 188.960938 23.605469 189.003906 C 25.28125 189.136719 26.257812 189.246094 26.53125 189.335938 C 27.132812 189.445312 27.726562 189.589844 28.3125 189.769531 C 29.527344 190.144531 30.71875 190.636719 31.890625 191.253906 C 32.183594 191.378906 33.074219 191.882812 34.5625 192.769531 C 38.011719 195.023438 39.925781 196.261719 40.3125 196.480469 L 41.324219 196.691406 L 42.167969 195.277344 L 41.199219 194.269531 C 40.933594 193.996094 40.101562 193.335938 38.695312 192.292969 C 37.59375 191.515625 36.40625 190.804688 35.140625 190.167969 C 34.808594 189.960938 33.796875 189.523438 32.113281 188.859375 C 30.75 188.367188 29.414062 187.984375 28.105469 187.703125 C 26.21875 187.226562 24.113281 186.996094 21.792969 187.007812 " fill-opacity="1" fill-rule="nonzero"/><path fill="#5e8fa8" d="M 92.183594 84.695312 L 91.550781 85.640625 C 91.148438 86.273438 90.777344 86.898438 90.433594 87.527344 C 90.398438 87.566406 89.765625 88.765625 88.53125 91.125 L 88.066406 91.949219 C 87.203125 93.316406 86.660156 94.230469 86.429688 94.6875 L 85.933594 95.703125 L 85.558594 96.710938 L 85.339844 97.730469 L 86.496094 98.335938 L 87.066406 97.488281 C 87.066406 97.546875 87.800781 96.265625 89.269531 93.644531 L 89.773438 92.867188 C 89.925781 92.617188 90.523438 91.835938 91.5625 90.519531 C 91.980469 89.976562 92.378906 89.398438 92.757812 88.792969 C 93.136719 88.1875 93.46875 87.539062 93.753906 86.851562 L 94.125 85.789062 L 92.183594 84.695312 M 84.777344 99.050781 L 84.257812 99.695312 L 84.972656 100.644531 L 85.503906 99.886719 L 85.878906 99.097656 L 84.777344 99.050781 " fill-opacity="1" fill-rule="nonzero"/><path fill="#5e8fa8" d="M 118.171875 35.15625 L 116.734375 35.910156 C 115.953125 37.09375 115.230469 38.257812 114.5625 39.398438 L 109.976562 47.507812 L 107.289062 51.945312 C 106.917969 52.570312 106.582031 53.171875 106.273438 53.75 C 105.605469 54.992188 105.070312 56.25 104.664062 57.527344 L 104.921875 58.765625 L 105.925781 57.992188 C 106.277344 57.464844 106.640625 56.886719 107.019531 56.253906 C 107.539062 55.414062 108.421875 53.910156 109.671875 51.746094 C 110.507812 50.347656 111.027344 49.496094 111.234375 49.191406 C 111.605469 48.605469 112 48.007812 112.417969 47.398438 C 113.757812 45.523438 114.726562 44.125 115.328125 43.199219 C 116.300781 41.675781 116.851562 40.792969 116.976562 40.542969 C 117.648438 39.390625 118.25 38.160156 118.789062 36.851562 L 118.171875 35.15625 M 104.683594 59.289062 L 103.507812 59.75 L 103.117188 60.453125 L 102.511719 61.488281 L 102.472656 62.886719 L 103.578125 62.484375 L 103.890625 61.5 L 104.371094 60.644531 L 104.734375 59.71875 L 104.683594 59.289062 " fill-opacity="1" fill-rule="nonzero"/><path fill="#5e8fa8" d="M 23.21875 188.460938 L 22.769531 189.425781 L 22.109375 190.132812 L 22.992188 190.289062 L 23.664062 189.550781 L 24.140625 188.691406 L 23.21875 188.460938 M 22.15625 190.914062 L 21.035156 191.332031 L 19.804688 192.960938 L 16.898438 197.253906 C 16.664062 197.621094 16.058594 198.4375 15.082031 199.695312 L 14.480469 200.558594 C 14.210938 200.917969 13.667969 201.835938 12.851562 203.3125 C 12.152344 204.78125 11.742188 205.820312 11.628906 206.421875 L 13.050781 207.148438 C 13.460938 206.425781 13.816406 205.773438 14.113281 205.203125 L 15.992188 201.589844 C 16.328125 200.960938 16.652344 200.386719 16.964844 199.867188 L 18.042969 198.148438 L 20.359375 194.726562 C 20.753906 194.121094 21.097656 193.542969 21.394531 192.988281 L 21.847656 192.074219 L 22.15625 190.914062 " fill-opacity="1" fill-rule="nonzero"/><path fill="#5e8fa8" d="M 9.34375 216.105469 L 8.457031 216.589844 L 7.980469 217.4375 L 8.371094 217.882812 L 9.183594 217.160156 L 9.34375 216.105469 M 8.128906 218.027344 L 7.074219 218.609375 L 6.546875 219.507812 C 6.21875 220.121094 5.921875 220.753906 5.65625 221.410156 L 4.117188 225.175781 L 3.785156 226.152344 L 3.515625 227.1875 L 3.335938 228.273438 L 3.269531 229.398438 L 3.332031 230.550781 L 4.992188 230.699219 C 5.402344 227.835938 5.609375 226.445312 5.613281 226.523438 C 5.71875 225.878906 5.847656 225.265625 6 224.679688 L 6.25 223.828125 L 6.601562 222.898438 C 6.867188 222.269531 7.136719 221.648438 7.414062 221.039062 L 7.792969 220.117188 L 8.105469 219.175781 L 8.128906 218.027344 " fill-opacity="1" fill-rule="nonzero"/><g clip-path="url(#cc1f210ec2)"><path fill="#5e8fa8" d="M 31.671875 231.375 L 29.800781 231.527344 L 28.042969 231.777344 L 27.078125 231.929688 C 26.109375 232.089844 25.511719 232.199219 25.285156 232.265625 L 22.492188 232.753906 L 21.949219 232.71875 L 21.144531 232.734375 L 20.097656 232.796875 L 18.832031 232.917969 L 13.515625 233.523438 C 13.160156 233.566406 12.140625 233.667969 10.457031 233.824219 C 9.457031 233.929688 8.601562 234.035156 7.894531 234.148438 L 7.140625 234.296875 L 6.722656 234.4375 L 6.582031 234.578125 L 6.703125 234.703125 L 7.101562 234.820312 L 7.816406 234.902344 L 8.902344 234.921875 L 10.308594 234.863281 L 11.421875 234.773438 C 15.0625 234.332031 17.136719 234.074219 17.640625 233.996094 C 19.101562 233.816406 20.390625 233.605469 21.515625 233.355469 C 22.875 233.421875 24.816406 233.261719 27.339844 232.871094 C 28.824219 232.59375 29.871094 232.40625 30.480469 232.308594 L 32.320312 231.921875 L 33.078125 231.605469 L 32.816406 231.414062 L 31.671875 231.375 M 106.585938 220.082031 L 105.363281 220.117188 C 95.894531 220.945312 84.921875 222.355469 72.445312 224.351562 C 69.1875 224.878906 65.453125 225.523438 61.238281 226.289062 L 47.035156 228.992188 L 39.128906 230.382812 L 37.292969 230.753906 C 36.347656 231.003906 36.011719 231.183594 36.289062 231.300781 C 36.582031 231.414062 37.402344 231.410156 38.75 231.28125 C 41.132812 230.984375 43.328125 230.683594 45.332031 230.378906 C 66.980469 226.644531 80.578125 224.449219 86.128906 223.796875 C 94.324219 222.65625 101.0625 221.894531 106.347656 221.507812 C 108.601562 221.722656 103.53125 226.128906 91.136719 234.726562 L 90.144531 235.921875 L 91.175781 237.617188 C 92.675781 237.757812 94.085938 237.71875 95.414062 237.503906 C 106.082031 235.867188 113.277344 234.796875 117 234.285156 C 119.394531 233.953125 121.09375 233.738281 122.101562 233.636719 C 122.753906 233.558594 123.40625 233.527344 124.054688 233.535156 L 125.101562 233.671875 C 126.742188 235.664062 127.835938 236.796875 128.375 237.070312 C 129.898438 237.609375 132.710938 237.855469 136.820312 237.808594 C 138.476562 237.78125 140.976562 237.660156 144.3125 237.449219 C 152.363281 236.683594 159.699219 236.003906 166.324219 235.417969 C 171.019531 234.867188 173.003906 234.367188 172.277344 233.917969 C 171.746094 233.640625 169.671875 233.601562 166.058594 233.800781 C 159.628906 234.191406 152.390625 234.75 144.339844 235.476562 C 140.988281 235.671875 138.527344 235.785156 136.957031 235.8125 C 135.558594 235.847656 134.234375 235.832031 132.984375 235.761719 C 131.71875 235.726562 130.433594 235.546875 129.128906 235.230469 L 126.71875 232.542969 L 125.625 231.828125 L 124.394531 231.601562 L 123.21875 231.605469 C 121.378906 231.640625 112.121094 233.046875 95.449219 235.824219 C 93.898438 236.042969 92.742188 236.125 91.988281 236.074219 C 100.269531 230.171875 105.183594 226.347656 106.734375 224.601562 C 108.042969 223.480469 108.535156 222.265625 108.207031 220.953125 L 106.585938 220.082031 " fill-opacity="1" fill-rule="nonzero"/></g><g clip-path="url(#e92c597831)"><path fill="#5e8fa8" d="M 222.25 244.492188 C 238.128906 241.746094 253.078125 234.191406 264.671875 222.988281 C 267.078125 220.664062 269.476562 218.09375 270.589844 214.871094 C 271.664062 211.761719 270.925781 208.558594 268.71875 206.144531 C 266.277344 203.472656 262.726562 201.964844 259.460938 200.574219 C 256.078125 199.132812 252.597656 197.902344 249.058594 196.902344 C 234.722656 192.855469 219.371094 192.492188 204.855469 195.816406 C 197.476562 197.503906 190.058594 200.078125 183.546875 203.980469 C 177.214844 207.777344 171.785156 213.304688 169.792969 220.578125 C 168 227.140625 169.648438 233.945312 174.519531 238.746094 C 179.371094 243.527344 186.257812 245.933594 192.828125 247.164062 C 208.460938 250.09375 225.011719 248.417969 239.875 242.847656 C 252.605469 238.074219 266.742188 230.070312 272.730469 217.207031 C 275.828125 210.550781 275.816406 203.226562 273.117188 196.425781 C 270.453125 189.707031 265.808594 183.769531 260.457031 178.964844 C 250.234375 169.789062 237.007812 164.539062 223.671875 161.890625 C 208.523438 158.882812 192.222656 158.546875 177.1875 162.328125 C 169.347656 164.296875 161.621094 167.539062 155.140625 172.429688 C 149.609375 176.605469 145.652344 182.566406 147.453125 189.722656 C 151.367188 205.292969 171.109375 207.199219 184.304688 207.675781 C 200.378906 208.253906 216.484375 205.492188 231.707031 200.382812 C 246.890625 195.285156 261.425781 187.90625 274.59375 178.789062 C 285.296875 171.375 296.152344 161.558594 299.242188 148.371094 C 302.664062 133.769531 294.769531 119.066406 283.101562 110.550781 C 270.78125 101.558594 254.9375 98.332031 239.957031 97.730469 C 223.734375 97.078125 206.769531 99.792969 191.929688 106.523438 C 185.386719 109.496094 179.097656 113.574219 174.765625 119.410156 C 170.667969 124.921875 168.75 131.613281 168.757812 138.445312 C 168.777344 152.136719 175.761719 165.132812 185.449219 174.480469 C 195.128906 183.8125 207.820312 189.992188 221.078125 192.121094 C 235.914062 194.503906 251.203125 191.621094 264.679688 185.164062 C 271.664062 181.820312 278.160156 177.503906 284.003906 172.429688 C 289.425781 167.722656 294.707031 162.296875 297.863281 155.761719 C 300.847656 149.585938 301.320312 142.585938 297.773438 136.527344 C 294.066406 130.1875 287.359375 126.128906 280.679688 123.539062 C 265.546875 117.671875 248.292969 117.699219 232.4375 120.042969 C 215.984375 122.480469 199.421875 127.917969 185.359375 136.925781 C 178.9375 141.042969 173.011719 146.082031 168.445312 152.230469 C 164.300781 157.8125 161.398438 164.214844 159.847656 170.992188 C 156.742188 184.5625 158.867188 199.105469 165.183594 211.460938 C 171.914062 224.625 183.03125 235.214844 195.746094 242.574219 C 208.390625 249.894531 222.765625 254.039062 237.339844 254.847656 C 251.796875 255.648438 266.488281 253.132812 279.683594 247.125 C 292.207031 241.421875 304.128906 232.363281 310.40625 219.839844 C 313.636719 213.398438 315.019531 206.230469 314.222656 199.054688 C 313.332031 191.039062 310.144531 183.414062 305.925781 176.597656 C 298.425781 164.480469 287.386719 154.769531 274.867188 148.078125 C 261.425781 140.894531 246.339844 137.347656 231.148438 136.886719 C 214.980469 136.394531 198.476562 139.1875 183.28125 144.710938 C 168.992188 149.90625 155.261719 158.773438 148.734375 173.027344 C 145.691406 179.664062 144.65625 186.90625 145.832031 194.117188 C 147.089844 201.832031 150.578125 209.113281 155.167969 215.390625 C 163.097656 226.230469 174.492188 234.089844 186.976562 238.828125 C 200.828125 244.085938 215.804688 245.328125 230.4375 243.308594 C 247.304688 240.984375 263.394531 234.707031 278.261719 226.550781 C 293.683594 218.09375 307.835938 207.542969 321.71875 196.800781 C 328.703125 191.394531 335.640625 185.921875 342.679688 180.585938 C 345.519531 178.429688 348.445312 175.882812 351.988281 174.996094 C 353.640625 174.582031 355.433594 174.695312 356.820312 175.777344 C 358.417969 177.019531 359.007812 179.132812 359.261719 181.050781 C 359.789062 185.121094 359.574219 189.390625 359.394531 193.484375 C 359.199219 197.894531 358.777344 202.292969 358.121094 206.660156 C 356.984375 214.230469 355.183594 221.753906 352.324219 228.871094 C 349.539062 235.789062 345.757812 242.34375 340.71875 247.867188 C 335.359375 253.734375 328.621094 258.292969 321.210938 261.152344 C 307.082031 266.605469 291.230469 265.523438 277.945312 258.28125 C 271.351562 254.6875 265.648438 249.695312 261.164062 243.675781 C 256.175781 236.980469 252.667969 229.320312 249.84375 221.5 C 243.691406 204.429688 240.164062 186.539062 234.632812 169.269531 C 229.835938 154.296875 223.5625 138.34375 210.382812 128.773438 C 199.242188 120.6875 184.925781 117.964844 171.390625 119.351562 C 156.8125 120.839844 142.875 127.089844 131.628906 136.414062 C 120.277344 145.824219 111.039062 158.832031 107.582031 173.304688 C 105.859375 180.511719 105.792969 188.0625 107.914062 195.195312 C 110.019531 202.265625 114.039062 208.671875 119.113281 213.984375 C 129.71875 225.089844 144.617188 230.660156 159.566406 232.742188 C 175.949219 235.019531 192.804688 233.785156 208.894531 230.148438 C 225.421875 226.414062 241.3125 220.011719 256.03125 211.652344 C 270.347656 203.511719 283.578125 193.539062 295.707031 182.417969 C 301.816406 176.808594 307.652344 170.898438 313.226562 164.753906 C 318.050781 159.433594 322.84375 152.308594 329.925781 149.84375 C 333.515625 148.589844 337.085938 149.394531 339.765625 152.105469 C 342.511719 154.882812 344.46875 158.660156 346.21875 162.121094 C 349.90625 169.402344 352.320312 177.453125 352.585938 185.644531 C 353.0625 200.019531 345.863281 215.050781 332.355469 221.238281 C 317.835938 227.890625 301.46875 220.839844 291.292969 209.851562 C 279.8125 197.449219 274.042969 180.613281 270.703125 164.347656 C 267.207031 147.332031 266.144531 129.9375 263.53125 112.785156 C 262.332031 104.90625 260.984375 96.882812 258.511719 89.285156 C 256.640625 83.539062 253.910156 77.738281 249.507812 73.476562 C 244.867188 68.984375 238.601562 67.214844 232.304688 68.84375 C 224.785156 70.789062 218.4375 76.273438 212.601562 81.140625 C 200.734375 91.03125 190.1875 102.472656 181.21875 115.050781 C 176.714844 121.375 172.617188 127.992188 168.96875 134.847656 C 165.304688 141.726562 161.832031 148.886719 159.734375 156.417969 C 157.691406 163.742188 157.15625 171.582031 159.511719 178.902344 C 161.617188 185.4375 166.027344 190.996094 172.253906 194.007812 C 184.042969 199.710938 198.292969 196.320312 209.921875 191.960938 C 224.296875 186.570312 237.707031 178.722656 249.519531 168.925781 C 261.285156 159.167969 271.8125 147.363281 279.496094 134.105469 C 283.082031 127.925781 285.539062 120.828125 283.148438 113.757812 C 280.863281 107.015625 275.25 101.78125 268.828125 98.976562 C 261.804688 95.90625 253.996094 95.308594 246.425781 95.488281 C 238.414062 95.675781 230.417969 96.777344 222.644531 98.710938 C 207.011719 102.59375 192.1875 109.890625 179.65625 120.023438 C 173.71875 124.832031 168.167969 130.226562 163.835938 136.550781 C 159.515625 142.855469 156.800781 150.015625 155.976562 157.621094 C 154.382812 172.363281 159.195312 187.363281 167.585938 199.414062 C 175.769531 211.171875 187.394531 220.503906 200.542969 226.164062 C 214.414062 232.136719 229.867188 233.945312 244.820312 232.273438 C 260.140625 230.5625 274.871094 225.273438 288.011719 217.257812 C 301.4375 209.074219 313.160156 198.222656 322.925781 185.9375 C 332.105469 174.390625 341.355469 160.808594 342.398438 145.644531 C 342.933594 137.875 340.992188 130.105469 341.84375 122.347656 C 342.539062 116.035156 345.335938 109.378906 351.402344 106.574219 C 352.066406 106.265625 351.726562 105.347656 351.175781 105.167969 C 338.632812 101.058594 325.890625 97.558594 313.007812 94.703125 C 306.605469 93.285156 300.167969 92.027344 293.707031 90.925781 C 287.507812 89.871094 281.253906 89 274.957031 88.976562 C 268.96875 88.953125 262.847656 89.703125 257.300781 92.050781 C 252.152344 94.226562 247.765625 97.710938 244.457031 102.214844 C 237.789062 111.273438 235.21875 123.070312 234.003906 134.054688 C 232.644531 146.304688 233.421875 158.828125 236.421875 170.792969 C 238.828125 180.375 243.613281 190.929688 253.535156 194.597656 C 263.6875 198.355469 274.808594 193.570312 283.445312 188.253906 C 293.320312 182.175781 301.988281 174.128906 308.792969 164.742188 C 315.1875 155.921875 321.523438 144.867188 320.042969 133.546875 C 318.585938 122.410156 310.285156 113.355469 300.550781 108.417969 C 290.320312 103.226562 278.421875 101.679688 267.078125 101.292969 C 255.824219 100.90625 244.230469 102.082031 233.683594 106.222656 C 223.261719 110.3125 214.519531 117.421875 209.039062 127.253906 C 203.265625 137.609375 200.785156 149.828125 200.316406 161.582031 C 199.828125 173.726562 201.667969 186.203125 206.113281 197.542969 C 210.035156 207.546875 216.488281 217.113281 226.394531 221.941406 C 244.289062 230.667969 266.335938 221.855469 279.105469 208.167969 C 282.738281 204.28125 285.949219 199.703125 287.039062 194.40625 C 288.152344 189.007812 286.941406 183.523438 284.546875 178.644531 C 279.628906 168.628906 270.292969 160.957031 260.984375 155.164062 C 251.535156 149.289062 240.953125 145.199219 230 143.242188 C 218.648438 141.21875 206.371094 141.289062 195.667969 146.019531 C 185.632812 150.449219 178.679688 158.949219 175.597656 169.394531 C 172.648438 179.386719 173.140625 190.242188 176.058594 200.183594 C 181.964844 220.285156 197.707031 236.902344 216.558594 245.601562 C 237.0625 255.070312 260.902344 255.046875 282.363281 249.003906 C 287.980469 247.417969 293.480469 245.417969 298.808594 243.039062 C 303.5625 240.917969 308.257812 238.574219 312.484375 235.511719 C 316.351562 232.707031 319.914062 229.265625 322.109375 224.972656 C 324.554688 220.179688 324.832031 214.757812 323.378906 209.613281 C 321.828125 204.117188 318.675781 199.179688 315.269531 194.660156 C 312.15625 190.523438 308.683594 186.652344 304.914062 183.105469 C 297.421875 176.054688 288.75 170.238281 279.414062 165.921875 C 270.039062 161.585938 259.984375 158.746094 249.710938 157.644531 C 238.242188 156.414062 225.207031 156.671875 215.058594 162.808594 C 206.253906 168.136719 200.523438 178.097656 203.3125 188.4375 C 206.113281 198.835938 215.304688 205.9375 225.3125 208.777344 C 236.609375 211.984375 249.03125 210.957031 260.476562 209.160156 C 272.847656 207.21875 284.925781 203.605469 296.339844 198.460938 C 307.59375 193.394531 318.167969 186.863281 327.683594 179.003906 C 335.855469 172.253906 344.011719 163.773438 345.355469 152.765625 C 346.769531 141.191406 340.53125 130.324219 333.148438 121.933594 C 326.050781 113.871094 317.324219 107.078125 307.996094 101.78125 C 289.863281 91.488281 267.789062 86.617188 247.28125 91.847656 C 236.46875 94.601562 225.996094 101.03125 222.546875 112.214844 C 221.0625 117.042969 221.148438 122.351562 223.34375 126.949219 C 225.578125 131.625 229.757812 135.171875 234.433594 137.28125 C 245.261719 142.171875 258.117188 139.457031 268.921875 135.902344 C 280.839844 131.976562 291.941406 125.699219 301.441406 117.507812 C 309.363281 110.675781 316.785156 101.78125 317.5625 90.910156 C 318.351562 79.902344 311.875 69.949219 304.011719 62.835938 C 295.789062 55.398438 285.453125 50.265625 274.9375 46.933594 C 264.230469 43.539062 252.886719 42.101562 241.671875 42.757812 C 230.132812 43.433594 218.453125 46.230469 208.417969 52.113281 C 199.089844 57.574219 191.871094 65.804688 187.8125 75.832031 C 184.054688 85.128906 182.890625 95.28125 183.132812 105.25 C 183.402344 116.324219 185.320312 127.390625 188.105469 138.09375 C 191.25 150.160156 196.050781 162.019531 204.074219 171.699219 C 211.152344 180.238281 220.570312 186.820312 231.5 189.21875 C 242.203125 191.570312 253.382812 190.011719 263.695312 186.671875 C 273.835938 183.394531 283.710938 178.539062 292.445312 172.421875 C 300.40625 166.839844 307.847656 159.730469 311.839844 150.707031 C 313.941406 145.949219 314.890625 140.882812 314.800781 135.6875 C 314.691406 129.371094 313.371094 123.070312 314.007812 116.746094 C 315.0625 106.257812 321.648438 95.84375 332.089844 92.695312 C 336.992188 91.214844 342.464844 91.300781 347.210938 93.296875 C 352.546875 95.539062 356.214844 100.097656 358.535156 105.28125 C 360.988281 110.761719 362.226562 116.777344 363.398438 122.636719 C 364.625 128.753906 365.550781 134.929688 366.191406 141.136719 C 367.476562 153.605469 367.59375 166.191406 366.546875 178.683594 C 365.5 191.167969 363.34375 203.671875 359.839844 215.707031 C 356.480469 227.246094 350.886719 238.960938 340.007812 245.113281 C 335.019531 247.9375 329.246094 249.078125 323.566406 248.234375 C 318.546875 247.488281 313.839844 245.398438 309.601562 242.660156 C 299.878906 236.378906 292.660156 226.886719 286.503906 217.257812 C 272.882812 195.941406 264.445312 171.710938 249.960938 150.902344 C 243.46875 141.574219 235.492188 132.285156 224.363281 128.589844 C 219.171875 126.867188 213.425781 126.453125 208.144531 128.042969 C 203.03125 129.578125 198.707031 132.945312 195.34375 137.023438 C 191.832031 141.28125 189.25 146.222656 187.113281 151.285156 C 184.816406 156.734375 182.925781 162.355469 181.457031 168.085938 C 178.542969 179.472656 177.296875 191.304688 177.765625 203.054688 C 178.585938 223.546875 184.054688 250.40625 207.214844 256.035156 C 216.84375 258.375 227.089844 256.734375 236.390625 253.785156 C 241.417969 252.1875 246.289062 250.132812 251.027344 247.820312 C 256.417969 245.195312 261.609375 242.125 266.207031 238.25 C 274.324219 231.40625 280.464844 221.378906 280.171875 210.46875 C 279.871094 199.363281 272.253906 190.714844 263.261719 185.0625 C 253.78125 179.101562 242.566406 175.589844 231.585938 173.6875 C 220.476562 171.757812 209.058594 171.597656 197.898438 173.210938 C 186.808594 174.8125 175.992188 178.132812 165.972656 183.160156 C 161.367188 185.472656 156.679688 188.230469 153.464844 192.359375 C 150.480469 196.183594 149.238281 200.945312 150.316406 205.710938 C 152.699219 216.230469 163.261719 222.644531 172.820312 225.652344 C 184.101562 229.195312 196.257812 229.164062 207.910156 228 C 232.84375 225.5 257.109375 216.675781 277.835938 202.597656 C 286.800781 196.511719 296.175781 189.445312 301.765625 179.953125 C 304.253906 175.730469 305.835938 170.953125 305.796875 166.019531 C 305.753906 160.03125 303.3125 154.398438 299.9375 149.550781 C 296.296875 144.320312 291.667969 139.882812 286.988281 135.597656 C 282.109375 131.121094 277.089844 126.804688 271.992188 122.582031 C 261.449219 113.84375 250.621094 105.457031 239.867188 96.984375 C 228.863281 88.3125 217.875 79.617188 206.851562 70.964844 C 202.695312 67.703125 198.148438 64.367188 192.65625 64.164062 C 186.996094 63.957031 181.902344 67.128906 177.847656 70.792969 C 173.683594 74.554688 170.164062 79.105469 166.933594 83.671875 C 163.808594 88.085938 161.023438 92.734375 158.589844 97.558594 C 153.660156 107.332031 150.160156 117.84375 148.285156 128.628906 C 147.359375 133.949219 146.820312 139.339844 146.695312 144.738281 C 146.550781 150.761719 146.726562 157.171875 149.558594 162.636719 C 154.136719 171.472656 164.53125 173.851562 173.714844 173.511719 C 179.277344 173.304688 184.796875 172.179688 190.171875 170.792969 C 196.359375 169.199219 202.40625 167.082031 208.238281 164.472656 C 218.960938 159.679688 229.578125 153.328125 237.839844 144.875 C 244.730469 137.824219 250.25 128.398438 248.9375 118.195312 C 247.453125 106.679688 238.429688 97.910156 228.90625 92.234375 C 223.550781 89.039062 217.832031 86.523438 212.199219 83.863281 C 209.460938 82.566406 206.707031 81.257812 204.0625 79.765625 C 202.484375 78.882812 201.878906 77.757812 203.089844 76.21875 C 204.015625 75.039062 205.421875 74.234375 206.679688 73.449219 C 212.339844 69.914062 218.699219 67.691406 225.117188 65.972656 C 231.222656 64.335938 237.445312 63.117188 243.71875 62.335938 C 256.242188 60.773438 268.988281 60.886719 281.476562 62.714844 C 292.910156 64.386719 304.5625 67.222656 314.804688 72.722656 C 325.148438 78.273438 333.214844 86.855469 336.683594 98.222656 C 340.269531 109.96875 338.9375 122.625 334.445312 133.933594 C 330.09375 144.886719 323.085938 155.050781 314.753906 163.359375 C 306.503906 171.582031 295.957031 177.933594 284.039062 178.210938 C 278.613281 178.335938 273.117188 177.199219 268.382812 174.488281 C 263.617188 171.761719 259.949219 167.53125 257.417969 162.707031 C 252.191406 152.734375 251.355469 140.496094 252.902344 129.503906 C 254.460938 118.457031 259.0625 107.757812 267.6875 100.414062 C 276.144531 93.207031 287.328125 89.886719 298.289062 89.441406 C 309.34375 88.988281 320.535156 91.335938 330.441406 96.273438 C 340.019531 101.046875 348.785156 108.457031 353.203125 118.398438 C 357.636719 128.363281 356.84375 139.8125 352.089844 149.511719 C 346.976562 159.9375 337.648438 167.5 326.769531 171.308594 C 305.601562 178.726562 276.195312 172.585938 267.6875 149.492188 C 265.699219 144.09375 265.144531 138.207031 266.488281 132.585938 C 267.65625 127.699219 270.167969 123.242188 273.457031 119.464844 C 280.164062 111.75 289.617188 106.726562 299.203125 103.527344 C 311.257812 99.5 324.03125 97.71875 336.730469 98.226562 C 342.972656 98.480469 349.316406 99.179688 355.378906 100.726562 C 360.625 102.0625 366.113281 104.480469 368.640625 109.589844 C 371.332031 115.039062 369.714844 121.546875 367.242188 126.75 C 364.765625 131.957031 361.144531 136.667969 357.222656 140.863281 C 349.515625 149.109375 339.824219 155.496094 329.226562 159.378906 C 319.113281 163.085938 307.851562 164.824219 297.179688 162.816406 C 287.425781 160.980469 277.320312 155.691406 273.84375 145.792969 C 270.308594 135.730469 274.800781 123.816406 283.992188 118.492188 C 293.46875 113.007812 305.929688 114.582031 313.792969 122.140625 C 321.765625 129.808594 324.15625 141.488281 320.472656 151.808594 C 316.542969 162.808594 307.21875 170.828125 296.800781 175.527344 C 284.832031 180.929688 271.402344 182.796875 258.425781 183.902344 C 245.503906 185 232.523438 185.089844 219.5625 185.488281 C 206.738281 185.882812 193.886719 186.597656 181.238281 188.882812 C 175.390625 189.9375 168.917969 191.21875 164.574219 195.621094 C 161.1875 199.050781 159.433594 204.230469 161.578125 208.777344 C 163.960938 213.847656 169.835938 217.042969 174.703125 219.28125 C 180.171875 221.804688 186.003906 223.453125 191.828125 224.929688 C 203.582031 227.917969 215.742188 229.933594 227.90625 229.652344 C 239.582031 229.378906 251.34375 226.828125 261.378906 220.664062 C 270.226562 215.230469 277.214844 207.136719 281.632812 197.769531 C 286.023438 188.472656 287.945312 178.003906 286.910156 167.761719 C 285.789062 156.644531 281.410156 145.949219 274.738281 137.011719 C 261.296875 119.015625 239.296875 109.546875 217.050781 110.046875 C 205.570312 110.304688 193.039062 112.828125 184.019531 120.371094 C 176.042969 127.039062 172.042969 137.101562 170.671875 147.191406 C 169.257812 157.566406 170.226562 168.273438 172.714844 178.414062 C 175.257812 188.769531 179.601562 198.78125 185.824219 207.460938 C 191.972656 216.039062 199.984375 223.257812 209.460938 227.96875 C 219.914062 233.164062 231.582031 235.34375 243.152344 236.101562 C 268.761719 237.78125 295.082031 233.308594 318.617188 223.035156 C 328.035156 218.925781 337.335938 213.496094 344.007812 205.523438 C 350.738281 197.476562 353.609375 187.308594 351.9375 176.933594 C 350.167969 165.96875 344.246094 155.960938 337.011719 147.707031 C 330.230469 139.980469 322.121094 133.4375 313.242188 128.273438 C 295.367188 117.882812 274.195312 112.984375 253.578125 114.921875 C 248.378906 115.410156 243.15625 116.277344 238.136719 117.730469 C 232.90625 119.242188 227.714844 121.558594 223.828125 125.464844 C 221.027344 128.277344 217.683594 133.703125 222.183594 136.667969 C 225.777344 139.035156 230.757812 137.667969 234.441406 136.332031 C 255.492188 128.699219 274.300781 115.199219 288.308594 97.730469 C 288.925781 96.960938 287.800781 95.902344 287.179688 96.679688 C 279.667969 106.046875 270.796875 114.277344 260.878906 121.042969 C 255.996094 124.378906 250.875 127.363281 245.558594 129.953125 C 242.785156 131.308594 239.964844 132.550781 237.09375 133.683594 C 234.671875 134.636719 232.179688 135.722656 229.597656 136.148438 C 227.539062 136.488281 225.007812 136.585938 223.15625 135.460938 C 220.757812 134.003906 221.414062 131.164062 222.742188 129.175781 C 225.921875 124.398438 231.355469 121.5625 236.664062 119.800781 C 246.46875 116.550781 257.226562 115.648438 267.5 116.183594 C 287.890625 117.242188 308 124.746094 323.992188 137.460938 C 332.246094 144.019531 339.613281 151.96875 344.714844 161.242188 C 350.019531 170.886719 352.828125 182.378906 349.308594 193.121094 C 346.085938 202.957031 338.164062 210.324219 329.574219 215.636719 C 319.757812 221.707031 308.621094 225.746094 297.554688 228.839844 C 285.101562 232.316406 272.246094 234.316406 259.328125 234.785156 C 247.296875 235.214844 234.984375 234.574219 223.300781 231.476562 C 212.59375 228.636719 202.796875 223.425781 194.855469 215.664062 C 187.363281 208.34375 181.707031 199.25 177.871094 189.539062 C 173.972656 179.667969 171.808594 169.050781 171.59375 158.4375 C 171.382812 148.265625 173.035156 137.546875 178.613281 128.84375 C 185.15625 118.625 196.660156 113.964844 208.269531 112.3125 C 219.105469 110.769531 230.269531 111.632812 240.71875 114.910156 C 262.199219 121.640625 279.480469 139.300781 284.355469 161.484375 C 288.8125 181.773438 281.121094 204.382812 264.265625 216.859375 C 244.703125 231.335938 218.335938 229.566406 195.878906 224.328125 C 189.996094 222.957031 184.070312 221.4375 178.449219 219.210938 C 175.695312 218.121094 173.015625 216.84375 170.492188 215.300781 C 167.988281 213.761719 165.429688 211.957031 163.757812 209.496094 C 160.394531 204.539062 162.9375 198.4375 167.441406 195.195312 C 172.664062 191.429688 179.75 190.59375 185.949219 189.648438 C 211.035156 185.832031 236.527344 187.644531 261.722656 185.144531 C 283.738281 182.960938 310.726562 177.34375 320.84375 154.972656 C 325.039062 145.703125 324.71875 135.0625 319.222656 126.386719 C 313.765625 117.769531 304.066406 112.800781 293.859375 113.804688 C 283.960938 114.78125 275.585938 121.136719 272.414062 130.621094 C 269.335938 139.8125 271.9375 149.816406 279.191406 156.25 C 286.371094 162.617188 296.453125 165.101562 305.855469 165.191406 C 316.460938 165.292969 327.140625 162.503906 336.644531 157.890625 C 346.320312 153.191406 355.015625 146.371094 361.761719 137.988281 C 367.929688 130.324219 374.917969 118.738281 369.945312 108.769531 C 367.691406 104.25 363.191406 101.601562 358.558594 100.046875 C 353.132812 98.226562 347.273438 97.488281 341.597656 96.996094 C 329.457031 95.945312 317.136719 97 305.347656 100.085938 C 287.40625 104.785156 265.539062 116.210938 264.25 137.207031 C 263.582031 148.132812 269.136719 158.890625 277.539062 165.664062 C 285.691406 172.246094 296.171875 175.445312 306.554688 175.851562 C 317.929688 176.289062 329.632812 173.3125 339.054688 166.824219 C 347.597656 160.9375 353.898438 152.132812 356.472656 142.054688 C 358.96875 132.292969 357.566406 122.003906 352.300781 113.386719 C 346.9375 104.617188 338.347656 98.128906 329.089844 93.921875 C 310.496094 85.476562 285.976562 84.894531 268.992188 97.421875 C 260.519531 103.671875 255.097656 112.902344 252.582031 123.03125 C 250.039062 133.28125 249.941406 144.574219 252.71875 154.785156 C 255.433594 164.75 261.566406 173.839844 271.488281 177.660156 C 281.125 181.367188 292.058594 179.914062 301.136719 175.355469 C 311.480469 170.15625 319.648438 161.320312 326.25 151.984375 C 332.71875 142.839844 337.761719 132.4375 339.574219 121.316406 C 341.402344 110.117188 339.835938 98.117188 333.992188 88.273438 C 328.511719 79.042969 319.464844 72.707031 309.722656 68.589844 C 299.175781 64.128906 287.699219 61.738281 276.347656 60.519531 C 264.292969 59.226562 252.074219 59.476562 240.078125 61.289062 C 228.246094 63.074219 215.636719 65.878906 205.433594 72.410156 C 203.632812 73.5625 201.230469 75.046875 200.863281 77.367188 C 200.457031 79.9375 203.164062 81.058594 205.015625 82.035156 C 210.328125 84.824219 215.851562 87.179688 221.222656 89.847656 C 231.601562 94.996094 242.425781 102.148438 246.320312 113.679688 C 249.800781 123.976562 245.375 134.167969 238.5 141.898438 C 230.820312 150.542969 220.484375 156.976562 210.125 161.914062 C 204.347656 164.671875 198.324219 166.921875 192.164062 168.65625 C 186.640625 170.214844 180.945312 171.503906 175.207031 171.886719 C 165.695312 172.523438 154.492188 170.425781 150.328125 160.683594 C 147.925781 155.050781 148.046875 148.578125 148.308594 142.574219 C 148.542969 137.238281 149.183594 131.925781 150.210938 126.683594 C 152.292969 116.0625 155.949219 105.765625 161.027344 96.207031 C 163.566406 91.429688 166.453125 86.832031 169.679688 82.496094 C 173.070312 77.933594 176.769531 73.3125 181.339844 69.886719 C 186.160156 66.277344 191.980469 64.4375 197.753906 66.898438 C 200.304688 67.984375 202.582031 69.605469 204.765625 71.289062 C 207.378906 73.304688 209.957031 75.371094 212.550781 77.414062 C 223.296875 85.882812 234.046875 94.355469 244.796875 102.824219 C 255.195312 111.023438 265.65625 119.15625 275.746094 127.742188 C 280.667969 131.929688 285.546875 136.195312 290.175781 140.707031 C 294.601562 145.015625 298.839844 149.742188 301.582031 155.328125 C 304.175781 160.609375 304.988281 166.53125 303.429688 172.242188 C 302.097656 177.105469 299.296875 181.457031 296.035156 185.25 C 292.46875 189.390625 288.292969 192.949219 283.96875 196.269531 C 279.046875 200.046875 273.882812 203.515625 268.523438 206.652344 C 247.335938 219.046875 222.941406 226.339844 198.375 227.085938 C 186.917969 227.433594 174.691406 226.203125 164.523438 220.488281 C 155.84375 215.613281 147.4375 204.839844 153.589844 194.851562 C 156.304688 190.445312 160.945312 187.511719 165.433594 185.164062 C 170.398438 182.570312 175.59375 180.421875 180.921875 178.703125 C 191.601562 175.261719 202.820312 173.574219 214.035156 173.65625 C 225.25 173.734375 236.445312 175.59375 247.054688 179.246094 C 257.253906 182.753906 268.027344 188.050781 274.25 197.242188 C 280.550781 206.550781 279.457031 218.082031 273.730469 227.382812 C 267.421875 237.628906 256.417969 243.890625 245.691406 248.605469 C 228.238281 256.28125 204.011719 260.980469 190.640625 243.523438 C 183.710938 234.480469 181.203125 222.625 179.957031 211.535156 C 178.648438 199.898438 179.066406 188.078125 181.175781 176.5625 C 183.21875 165.433594 186.644531 154.03125 192.304688 144.179688 C 195.0625 139.382812 198.613281 134.839844 203.367188 131.890625 C 208.144531 128.925781 213.808594 128.03125 219.328125 128.933594 C 231.285156 130.890625 240.109375 139.960938 246.949219 149.332031 C 254.1875 159.25 259.949219 170.132812 265.441406 181.089844 C 270.941406 192.058594 276.195312 203.175781 282.503906 213.71875 C 288.269531 223.355469 294.902344 232.933594 303.617188 240.152344 C 311.046875 246.304688 320.480469 251.035156 330.375 249.882812 C 341.640625 248.574219 350.488281 240.179688 355.664062 230.535156 C 361.21875 220.183594 363.765625 208.128906 365.773438 196.644531 C 367.859375 184.714844 368.871094 172.585938 368.792969 160.472656 C 368.714844 148.433594 367.554688 136.40625 365.335938 124.574219 C 363.390625 114.179688 361.277344 101.242188 352.253906 94.429688 C 344.636719 88.683594 333.554688 88.898438 325.648438 93.964844 C 317.128906 99.433594 312.515625 109.539062 312.308594 119.46875 C 312.179688 125.644531 313.445312 131.757812 313.242188 137.933594 C 313.070312 142.980469 311.691406 147.882812 309.332031 152.335938 C 304.660156 161.152344 296.765625 167.910156 288.476562 173.222656 C 279.441406 179.007812 269.417969 183.660156 259.046875 186.441406 C 248.558594 189.25 237.304688 189.910156 226.914062 186.328125 C 216.417969 182.710938 207.769531 174.945312 201.613281 165.859375 C 194.25 154.992188 190.335938 142.210938 187.679688 129.472656 C 183.675781 110.242188 182.015625 88.027344 192.199219 70.335938 C 203.914062 49.984375 229.3125 43.179688 251.398438 44.253906 C 262.566406 44.792969 273.652344 47.417969 283.867188 51.960938 C 294.015625 56.472656 303.792969 62.871094 310.226562 72.109375 C 313.289062 76.507812 315.53125 81.574219 315.992188 86.957031 C 316.457031 92.421875 315.019531 97.753906 312.351562 102.5 C 309.777344 107.09375 306.21875 111.078125 302.359375 114.632812 C 297.726562 118.898438 292.613281 122.65625 287.203125 125.882812 C 276.640625 132.175781 264.417969 136.875 252.117188 138.109375 C 241.414062 139.179688 228.015625 136 224.039062 124.609375 C 222.261719 119.523438 223.082031 113.867188 225.441406 109.105469 C 228.019531 103.894531 232.394531 99.945312 237.472656 97.210938 C 247.082031 92.027344 258.8125 90.761719 269.570312 91.453125 C 290.484375 92.796875 310.476562 102.574219 325.777344 116.65625 C 334.050781 124.265625 342.097656 134.039062 343.738281 145.527344 C 344.546875 151.183594 343.5 156.816406 340.835938 161.859375 C 338.34375 166.578125 334.730469 170.617188 330.839844 174.222656 C 312.945312 190.8125 289.589844 201.910156 265.761719 206.664062 C 259.695312 207.875 253.546875 208.667969 247.371094 209.03125 C 241.726562 209.363281 236.007812 209.328125 230.417969 208.351562 C 219.671875 206.480469 209.171875 200.476562 205.328125 189.71875 C 203.535156 184.6875 203.730469 179.242188 206.113281 174.4375 C 208.492188 169.628906 212.601562 165.804688 217.3125 163.308594 C 223.175781 160.195312 229.886719 159.050781 236.453125 158.753906 C 241.726562 158.515625 247.023438 158.777344 252.25 159.5 C 272.519531 162.308594 291.769531 171.945312 306.171875 186.488281 C 309.738281 190.085938 313.003906 193.984375 315.890625 198.148438 C 319.300781 203.066406 322.371094 208.699219 322.726562 214.796875 C 323.359375 225.632812 314.425781 233.128906 305.796875 237.898438 C 286.273438 248.691406 262.550781 253.855469 240.371094 250.828125 C 219.15625 247.929688 199.558594 236.863281 187.109375 219.273438 C 175.4375 202.785156 170.066406 178.804688 181.109375 160.578125 C 193.800781 139.632812 223.074219 141.21875 243.253906 148.339844 C 253.628906 152.003906 263.320312 157.664062 271.570312 164.941406 C 279.695312 172.109375 288.097656 182.910156 285.445312 194.472656 C 284.171875 200.019531 280.492188 204.671875 276.535156 208.605469 C 273.058594 212.058594 269.097656 215.015625 264.828125 217.414062 C 256.429688 222.136719 246.457031 224.859375 236.804688 223.496094 C 212.992188 220.140625 203.726562 193.375 202.070312 172.519531 C 201.117188 160.480469 202.441406 148.039062 206.503906 136.632812 C 210.355469 125.820312 217.265625 116.667969 227.316406 110.945312 C 237.050781 105.402344 248.410156 103.234375 259.5 102.835938 C 270.8125 102.429688 282.765625 103.410156 293.519531 107.117188 C 304.253906 110.816406 314.3125 118.507812 317.671875 129.773438 C 321.046875 141.089844 315.347656 152.425781 309.117188 161.613281 C 302.597656 171.234375 294.105469 179.53125 284.355469 185.851562 C 275.695312 191.46875 264.109375 197.117188 253.695312 193.019531 C 243.617188 189.054688 239.472656 177.59375 237.316406 167.863281 C 234.644531 155.816406 234.175781 143.253906 235.933594 131.039062 C 237.496094 120.152344 240.449219 108.230469 248.273438 100.050781 C 256.960938 90.96875 269.996094 89.800781 281.855469 90.851562 C 293.460938 91.878906 305.046875 94.425781 316.378906 97.050781 C 327.992188 99.742188 339.480469 102.957031 350.808594 106.667969 C 350.734375 106.199219 350.65625 105.730469 350.582031 105.265625 C 344.65625 108.003906 341.566406 114.324219 340.546875 120.496094 C 339.265625 128.285156 341.148438 136.136719 340.9375 143.953125 C 340.523438 159.269531 331.132812 173.105469 321.941406 184.703125 C 302.984375 208.617188 276.261719 226.992188 245.464844 230.652344 C 230.78125 232.394531 215.546875 230.8125 201.859375 225.054688 C 188.84375 219.578125 177.28125 210.496094 169.136719 198.9375 C 160.839844 187.171875 155.984375 172.519531 157.472656 158.046875 C 158.257812 150.382812 161.054688 143.210938 165.453125 136.90625 C 169.949219 130.464844 175.800781 124.960938 181.96875 120.148438 C 194.332031 110.507812 208.773438 103.613281 224.015625 99.960938 C 231.675781 98.128906 239.53125 97.125 247.410156 97.011719 C 255.140625 96.902344 263.207031 97.652344 270.148438 101.320312 C 276.417969 104.636719 281.816406 110.804688 282.519531 118.078125 C 283.242188 125.53125 278.988281 132.355469 275.046875 138.308594 C 266.644531 151 256.019531 162.234375 243.898438 171.429688 C 232.085938 180.398438 218.742188 187.625 204.609375 192.191406 C 193.210938 195.878906 178.417969 198.003906 168.417969 189.738281 C 162.609375 184.933594 159.839844 177.464844 159.515625 170.078125 C 159.167969 162.246094 161.539062 154.554688 164.59375 147.429688 C 170.574219 133.484375 178.667969 120.335938 188.09375 108.464844 C 197.417969 96.722656 208.210938 86.03125 220.222656 77.046875 C 226.304688 72.492188 233.890625 67.996094 241.734375 70.457031 C 247.472656 72.257812 251.425781 77.335938 254.066406 82.488281 C 257.234375 88.660156 258.78125 95.53125 260.140625 102.28125 C 261.800781 110.523438 262.902344 118.867188 263.90625 127.210938 C 265.875 143.621094 267.40625 160.234375 272.003906 176.175781 C 276.234375 190.855469 283.28125 205.855469 295.289062 215.765625 C 305.917969 224.539062 321.066406 228.539062 333.898438 222.203125 C 346.015625 216.222656 353.304688 203.015625 354.082031 189.8125 C 354.527344 182.234375 353.039062 174.605469 350.3125 167.546875 C 348.980469 164.09375 347.355469 160.75 345.484375 157.558594 C 343.726562 154.554688 341.800781 151.296875 338.835938 149.335938 C 333.1875 145.601562 326.773438 148.945312 322.261719 152.828125 C 319.46875 155.226562 317.128906 158.046875 314.699219 160.792969 C 312.007812 163.839844 309.253906 166.832031 306.4375 169.765625 C 295.335938 181.308594 283.226562 191.914062 270.039062 201.019531 C 243.003906 219.6875 210.996094 231.964844 177.886719 232.308594 C 162.648438 232.46875 146.800781 230.308594 133.277344 222.878906 C 120.4375 215.820312 109.726562 203.210938 108.0625 188.269531 C 106.394531 173.320312 113.535156 158.386719 122.949219 147.191406 C 132.359375 135.992188 145.042969 127.554688 159.070312 123.371094 C 172.242188 119.441406 186.976562 119.34375 199.792969 124.636719 C 206.242188 127.296875 211.988281 131.320312 216.617188 136.542969 C 221.886719 142.488281 225.625 149.65625 228.601562 156.972656 C 235.214844 173.234375 238.886719 190.511719 243.726562 207.335938 C 248.066406 222.40625 253.234375 238.167969 264.28125 249.765625 C 273.5625 259.507812 286.667969 265.453125 300.09375 266.140625 C 314.75 266.898438 329.578125 261.144531 340.003906 250.839844 C 350.210938 240.75 355.761719 226.886719 358.566406 213.035156 C 360.15625 205.179688 360.972656 197.148438 361.054688 189.136719 C 361.113281 183.761719 361.761719 173.539062 354.035156 173.226562 C 351.015625 173.101562 348.082031 174.75 345.6875 176.421875 C 342.253906 178.8125 338.980469 181.457031 335.671875 184.015625 C 328.957031 189.203125 322.292969 194.460938 315.546875 199.609375 C 302.167969 209.820312 288.390625 219.648438 273.410156 227.394531 C 258.472656 235.113281 242.242188 240.84375 225.414062 242.328125 C 211.375 243.570312 197.136719 241.652344 184.164062 236.035156 C 172.042969 230.785156 161.183594 222.375 154.125 211.105469 C 149.855469 204.285156 146.914062 196.40625 146.867188 188.292969 C 146.824219 181.089844 149.273438 174.136719 153.203125 168.160156 C 161.996094 154.789062 177.164062 147.738281 192.082031 143.507812 C 207.265625 139.199219 223.257812 137.339844 239 138.941406 C 267.519531 141.84375 296.121094 157.707031 308.449219 184.515625 C 311.835938 191.875 313.777344 200.160156 312.542969 208.261719 C 311.53125 214.933594 308.515625 221.144531 304.40625 226.453125 C 295.828125 237.542969 283.058594 245.058594 269.839844 249.269531 C 242.398438 258.019531 210.863281 252.867188 187.832031 235.503906 C 176.445312 226.910156 167.085938 215.246094 162.753906 201.527344 C 158.613281 188.421875 158.929688 173.628906 164.878906 161.117188 C 171.351562 147.484375 184.09375 138.324219 197.441406 132.085938 C 212.9375 124.839844 229.972656 120.828125 247.0625 120.273438 C 254.878906 120.023438 262.765625 120.433594 270.425781 122.089844 C 277.753906 123.675781 285.257812 126.324219 291.09375 131.179688 C 296.902344 136.007812 300.121094 142.933594 298.199219 150.464844 C 296.457031 157.28125 291.675781 162.964844 286.761719 167.789062 C 275.949219 178.40625 262.246094 186.214844 247.445312 189.605469 C 233.507812 192.796875 218.859375 191.726562 205.703125 186.042969 C 193.65625 180.839844 183.058594 172.046875 176.53125 160.578125 C 169.816406 148.78125 167.25 132.957031 175.386719 121.167969 C 179.484375 115.230469 185.707031 111.097656 192.164062 108.101562 C 199.242188 104.820312 206.902344 102.644531 214.546875 101.171875 C 230.273438 98.144531 247.035156 98.371094 262.519531 102.640625 C 276.828125 106.589844 290.546875 115.175781 296.195312 129.515625 C 298.8125 136.167969 299.269531 143.40625 297.128906 150.253906 C 295.160156 156.535156 291.261719 162.027344 286.726562 166.71875 C 282.035156 171.570312 276.613281 175.652344 270.988281 179.359375 C 264.3125 183.753906 257.355469 187.722656 250.15625 191.195312 C 235.957031 198.042969 220.722656 202.988281 205.074219 205.085938 C 197.402344 206.113281 189.632812 206.460938 181.898438 206.023438 C 174.277344 205.589844 166.011719 204.808594 159.117188 201.273438 C 152.921875 198.101562 147.46875 191.472656 148.671875 184.097656 C 149.882812 176.683594 157.726562 171.992188 163.839844 168.882812 C 178.371094 161.484375 195.464844 160.273438 211.46875 161.703125 C 224.875 162.898438 238.425781 166.316406 250.058594 173.253906 C 255.78125 176.664062 261.003906 180.976562 265.195312 186.171875 C 270.171875 192.332031 274.136719 200.019531 273.578125 208.148438 C 272.617188 222.066406 259.558594 231.738281 248.164062 237.53125 C 234.003906 244.726562 217.855469 247.933594 202.019531 246.785156 C 189.558594 245.882812 170.113281 241.445312 170.601562 225.410156 C 171.089844 209.171875 189.378906 201.421875 202.71875 197.929688 C 216.867188 194.222656 231.945312 194.179688 246.128906 197.722656 C 249.640625 198.597656 253.105469 199.6875 256.476562 201.011719 C 259.757812 202.296875 263.292969 203.65625 266.097656 205.835938 C 268.992188 208.085938 270.371094 211.332031 268.953125 214.871094 C 267.664062 218.085938 264.984375 220.609375 262.5 222.925781 C 251.246094 233.402344 236.945312 240.394531 221.808594 243.015625 C 220.828125 243.183594 221.28125 244.660156 222.25 244.492188 " fill-opacity="1" fill-rule="nonzero"/></g></g></g></svg>